#N canvas 117 38 1355 858 12;
#X obj 1212 423 soundfiler;
#N canvas 121 146 635 421 (subpatch) 0;
#X array palmeraFenix1 992 float 0;
#X coords 0 1 991 -1 200 140 1 0 0;
#X restore 37 29 graph;
#X obj 1459 632 bng 19 250 50 0 empty empty empty 0 -10 0 12 #fcfcfc #000000 #000000;
#X floatatom 1353 728 5 0 0 0 - - - 0;
#X obj 1291 462 soundfiler;
#N canvas 0 22 450 278 (subpatch) 0;
#X array palmeraFenix2 992 float 2;
#X coords 0 1 992 -1 200 140 1 0 0;
#X restore 244 30 graph;
#X obj 1236 276 loadbang;
#X obj 1447 317 delay 10;
#X obj 38 390 hsl 162 19 0 7595 0 0 empty empty empty -2 -10 0 12 #fcfcfc #000000 #000000 0 1;
#X msg 35 363 range 0 \$1;
#X floatatom 72 414 5 0 0 0 - - - 0;
#X floatatom 34 476 5 0 0 0 - - - 0;
#X floatatom 33 535 5 0 0 0 - - - 0;
#X obj 29 562 i;
#X floatatom 31 592 5 0 0 0 - - - 0;
#X obj 318 388 hsl 162 19 0 7595 0 0 empty empty empty -2 -10 0 12 #fcfcfc #000000 #000000 0 1;
#X msg 315 361 range 0 \$1;
#X floatatom 352 412 5 0 0 0 - - - 0;
#X floatatom 314 474 5 0 0 0 - - - 0;
#X obj 318 536 i;
#X floatatom 318 565 5 0 0 0 - - - 0;
#X obj 157 362 line 0 1000;
#X obj 1355 188 bng 19 250 50 0 empty empty empty 0 -10 0 12 #fcfcfc #000000 #000000;
#X obj 179 700 loadbang;
#X msg 179 724 1;
#X obj 43 654 change;
#X obj 35 760 noteout 1;
#X obj 314 646 change;
#X obj 338 757 noteout 2;
#X msg 452 705 2;
#X obj 448 678 loadbang;
#X obj 312 674 makenote 64 2000;
#X obj 194 435 sel 610;
#X obj 199 506 spigot;
#X obj 238 478 tgl 19 0 empty empty empty 0 -10 0 12 #fcfcfc #000000 #000000 0 1;
#X text 262 481 LOOP;
#X obj 1471 594 delay 15;
#X obj 1469 567 loadbang;
#X floatatom 1356 243 5 0 0 0 - - - 0;
#X text 73 504 scale;
#X text 352 506 scale;
#X obj 1353 751 s arraySize;
#X obj 56 177 r arraySize;
#X obj 55 206 t b f;
#X obj 31 240 bng 19 250 50 0 empty empty empty 0 -10 0 12 #fcfcfc #000000 #000000;
#X obj 36 335 r arraySize;
#X obj 316 335 r arraySize;
#X text 431 232 grain;
#X text 159 177 tiempo;
#X floatatom 194 252 5 0 0 0 - - - 0;
#X floatatom 396 249 5 0 0 0 - - - 0;
#X obj 241 191 loadbang;
#X msg 175 224 1000;
#X msg 398 221 30;
#X obj 92 276 pack f f f f, f 68;
#X floatatom 505 248 5 0 0 0 - - - 0;
#X text 540 231 init;
#X msg 507 220 0;
#X msg 159 321 \$4 \, \$1 \$2 \$3;
#X obj 322 610 + 0;
#X floatatom 392 582 5 0 0 0 - - - 0;
#X text 444 586 offset;
#X text 96 592 offset;
#X obj 29 624 + 0;
#X floatatom 152 593 5 0 0 0 - - - 0;
#X obj 140 618 loadbang;
#X floatatom 145 679 5 0 0 0 - - - 0;
#X obj 514 579 loadbang;
#X floatatom 522 626 5 0 0 0 - - - 0;
#X text 185 679 sustain;
#X text 568 627 sustain;
#X floatatom 7 682 5 0 0 0 - - - 0;
#X floatatom 267 672 5 0 0 0 - - - 0;
#X msg 152 567 72;
#X obj 151 543 loadbang;
#X obj 399 529 loadbang;
#X obj 43 706 makenote 100 1000;
#X obj 33 508 * 64;
#X obj 313 506 * 64;
#X msg 145 654 30;
#X msg 522 602 30;
#X msg 270 328 stop;
#N canvas 121 146 635 421 (subpatch) 0;
#X array palmeraMatojo1 1093 float 0;
#X coords 0 1 1092 -1 200 140 1 0 0;
#X restore 619 37 graph;
#N canvas 0 22 450 278 (subpatch) 0;
#X array palmeraMatojo2 1093 float 2;
#X coords 0 1 1093 -1 200 140 1 0 0;
#X restore 826 38 graph;
#X obj 620 398 hsl 162 19 0 7595 0 0 empty empty empty -2 -10 0 12 #fcfcfc #000000 #000000 0 1;
#X msg 617 371 range 0 \$1;
#X floatatom 654 422 5 0 0 0 - - - 0;
#X floatatom 616 484 5 0 0 0 - - - 0;
#X floatatom 615 543 5 0 0 0 - - - 0;
#X obj 611 570 i;
#X floatatom 613 600 5 0 0 0 - - - 0;
#X obj 900 396 hsl 162 19 0 7595 0 0 empty empty empty -2 -10 0 12 #fcfcfc #000000 #000000 0 1;
#X msg 897 369 range 0 \$1;
#X floatatom 934 420 5 0 0 0 - - - 0;
#X floatatom 896 482 5 0 0 0 - - - 0;
#X obj 900 544 i;
#X floatatom 900 573 5 0 0 0 - - - 0;
#X obj 739 370 line 0 1000;
#X obj 761 708 loadbang;
#X msg 761 732 1;
#X obj 625 662 change;
#X obj 896 654 change;
#X msg 1034 713 2;
#X obj 1030 686 loadbang;
#X obj 894 682 makenote 64 2000;
#X obj 776 443 sel 610;
#X obj 781 514 spigot;
#X obj 820 486 tgl 19 0 empty empty empty 0 -10 0 12 #fcfcfc #000000 #000000 0 1;
#X text 844 489 LOOP;
#X text 655 512 scale;
#X text 934 514 scale;
#X obj 638 185 r arraySize;
#X obj 637 214 t b f;
#X obj 613 248 bng 19 250 50 0 empty empty empty 0 -10 0 12 #fcfcfc #000000 #000000;
#X obj 618 343 r arraySize;
#X obj 898 343 r arraySize;
#X text 1013 240 grain;
#X text 741 185 tiempo;
#X floatatom 776 260 5 0 0 0 - - - 0;
#X floatatom 978 257 5 0 0 0 - - - 0;
#X obj 823 199 loadbang;
#X msg 757 232 1000;
#X msg 980 229 30;
#X obj 674 284 pack f f f f, f 68;
#X floatatom 1087 256 5 0 0 0 - - - 0;
#X text 1122 239 init;
#X msg 1089 228 0;
#X msg 741 329 \$4 \, \$1 \$2 \$3;
#X obj 904 618 + 0;
#X floatatom 974 590 5 0 0 0 - - - 0;
#X text 1026 594 offset;
#X text 678 600 offset;
#X obj 611 632 + 0;
#X floatatom 734 601 5 0 0 0 - - - 0;
#X obj 722 626 loadbang;
#X floatatom 727 687 5 0 0 0 - - - 0;
#X obj 1096 587 loadbang;
#X floatatom 1104 634 5 0 0 0 - - - 0;
#X text 767 687 sustain;
#X text 1150 635 sustain;
#X floatatom 589 690 5 0 0 0 - - - 0;
#X floatatom 849 680 5 0 0 0 - - - 0;
#X msg 734 575 72;
#X obj 733 551 loadbang;
#X obj 981 537 loadbang;
#X obj 625 714 makenote 100 1000;
#X obj 615 516 * 64;
#X obj 895 514 * 64;
#X msg 727 662 30;
#X msg 1104 610 30;
#X msg 832 238 60000;
#X msg 852 336 stop;
#X obj 1839 408 soundfiler;
#X obj 2086 617 bng 19 250 50 0 empty empty empty 0 -10 0 12 #fcfcfc #000000 #000000;
#X floatatom 1980 713 5 0 0 0 - - - 0;
#X obj 1918 447 soundfiler;
#X obj 1863 261 loadbang;
#X obj 2074 302 delay 10;
#X obj 1982 173 bng 19 250 50 0 empty empty empty 0 -10 0 12 #fcfcfc #000000 #000000;
#X obj 2098 579 delay 15;
#X obj 2096 552 loadbang;
#X floatatom 1983 228 5 0 0 0 - - - 0;
#X obj 1980 736 s arraySize;
#X obj 532 116 bng 19 250 50 0 empty empty empty 0 -10 0 12 #fcfcfc #000000 #000000;
#X obj 617 768 noteout 3;
#X obj 920 765 noteout 4;
#X msg 250 230 60000;
#X msg 323 225 600000;
#X msg 901 234 600000;
#X obj 30 454 tabread4 palmeraFenix1;
#X obj 313 441 tabread4 palmeraFenix2;
#X obj 1357 216 array min palmeraFenix1;
#X msg 1220 360 read -ascii -resize palmeraFenix1.txt palmeraFenix1;
#X msg 1381 418 read -ascii -resize palmeraFenix2.txt palmeraFenix2;
#X msg 1164 534 \; palmeraFenix1 normalize;
#X msg 1381 483 \; palmeraFenix2 normalize;
#X obj 1230 679 array size palmeraFenix1;
#X obj 612 462 tabread4 palmeraMatojo1;
#X obj 895 449 tabread4 palmeraMatojo2;
#X obj 1984 201 array min palmeraMatojo1;
#X msg 1847 345 read -ascii -resize palmeraMatojo1.txt palmeraMatojo1;
#X msg 2008 403 read -ascii -resize palmeraMatojo1.txt palmeraMatojo2;
#X msg 1791 519 \; palmeraMatojo1 normalize;
#X msg 2008 468 \; palmeraMatojo2 normalize;
#X obj 1857 664 array size palmeraMatojo2;
#X msg 400 553 64;
#X obj 2506 390 soundfiler;
#X obj 2753 599 bng 19 250 50 0 empty empty empty 0 -10 0 12 #fcfcfc #000000 #000000;
#X floatatom 2647 695 5 0 0 0 - - - 0;
#X obj 2530 243 loadbang;
#X obj 2741 284 delay 10;
#X obj 2649 155 bng 19 250 50 0 empty empty empty 0 -10 0 12 #fcfcfc #000000 #000000;
#X obj 2765 561 delay 15;
#X obj 2763 534 loadbang;
#X floatatom 2650 210 5 0 0 0 - - - 0;
#X obj 2647 718 s arraySize;
#N canvas 63 101 450 278 (subpatch) 0;
#X array palmaNoise 7595 float 2;
#X coords 0 1 7595 -1 200 140 1;
#X restore 1119 28 graph;
#X text 478 1312 sustain;
#X obj 530 1083 hsl 162 19 0 7595 0 0 empty empty empty -2 -10 0 12 #fcfcfc #000000 #000000 0 1;
#X msg 527 1056 range 0 \$1;
#X floatatom 564 1107 5 0 0 0 - - - 0;
#X floatatom 526 1169 5 0 0 0 - - - 0;
#X floatatom 525 1228 5 0 0 0 - - - 0;
#X obj 521 1255 i;
#X floatatom 523 1285 5 0 0 0 - - - 0;
#X obj 649 1055 line 0 1000;
#X obj 671 1393 loadbang;
#X msg 671 1417 1;
#X obj 535 1347 change;
#X obj 686 1128 sel 610;
#X obj 691 1199 spigot;
#X obj 730 1171 tgl 19 0 empty empty empty 0 -10 0 12 #fcfcfc #000000 #000000 0 1;
#X text 754 1174 LOOP;
#X text 565 1197 scale;
#X obj 548 870 r arraySize;
#X obj 547 899 t b f;
#X obj 523 933 bng 19 250 50 0 empty empty empty 0 -10 0 12 #fcfcfc #000000 #000000;
#X obj 528 1028 r arraySize;
#X text 923 925 grain;
#X text 651 870 tiempo;
#X floatatom 686 945 5 0 0 0 - - - 0;
#X floatatom 888 942 5 0 0 0 - - - 0;
#X obj 733 884 loadbang;
#X msg 667 917 1000;
#X msg 890 914 30;
#X obj 584 969 pack f f f f, f 68;
#X floatatom 997 941 5 0 0 0 - - - 0;
#X text 1032 924 init;
#X msg 999 913 0;
#X msg 651 1014 \$4 \, \$1 \$2 \$3;
#X text 588 1285 offset;
#X obj 521 1317 + 0;
#X floatatom 644 1286 5 0 0 0 - - - 0;
#X obj 632 1311 loadbang;
#X floatatom 637 1372 5 0 0 0 - - - 0;
#X text 677 1372 sustain;
#X floatatom 499 1375 5 0 0 0 - - - 0;
#X msg 644 1260 72;
#X obj 643 1236 loadbang;
#X obj 535 1399 makenote 100 1000;
#X obj 525 1201 * 64;
#X msg 637 1347 30;
#X msg 742 923 60000;
#X msg 762 1021 stop;
#X msg 811 919 600000;
#X obj 522 1147 tabread4 palmaNoise;
#X msg 2514 327 read -ascii -resize palmaNoise.txt palmaNoise;
#X msg 2458 501 \; palmaNoise normalize;
#X obj 2524 646 array size palmaNoise;
#X obj 2651 183 array min palmaNoise;
#X obj 527 1453 noteout 5;
#X msg 982 561 64;
#X connect 2 0 176 0;
#X connect 3 0 41 0;
#X connect 6 0 7 0;
#X connect 6 0 173 0;
#X connect 6 0 172 0;
#X connect 7 0 174 0;
#X connect 7 0 175 0;
#X connect 8 0 10 0;
#X connect 8 0 32 0;
#X connect 8 0 169 0;
#X connect 9 0 8 0;
#X connect 11 0 77 0;
#X connect 12 0 13 0;
#X connect 13 0 14 0;
#X connect 14 0 63 0;
#X connect 15 0 17 0;
#X connect 15 0 170 0;
#X connect 16 0 15 0;
#X connect 18 0 78 0;
#X connect 19 0 20 0;
#X connect 20 0 59 0;
#X connect 21 0 8 0;
#X connect 21 0 15 0;
#X connect 22 0 171 0;
#X connect 23 0 24 0;
#X connect 24 0 26 2;
#X connect 25 0 71 0;
#X connect 25 0 76 0;
#X connect 27 0 31 0;
#X connect 27 0 72 0;
#X connect 29 0 28 2;
#X connect 30 0 29 0;
#X connect 31 0 28 0;
#X connect 31 1 28 1;
#X connect 32 0 33 0;
#X connect 34 0 33 1;
#X connect 36 0 2 0;
#X connect 37 0 36 0;
#X connect 42 0 43 0;
#X connect 43 0 44 0;
#X connect 43 1 54 0;
#X connect 44 0 54 0;
#X connect 45 0 9 0;
#X connect 46 0 16 0;
#X connect 49 0 54 1;
#X connect 50 0 54 2;
#X connect 51 0 53 0;
#X connect 51 0 57 0;
#X connect 51 0 166 0;
#X connect 52 0 49 0;
#X connect 53 0 50 0;
#X connect 54 0 58 0;
#X connect 55 0 54 3;
#X connect 57 0 55 0;
#X connect 58 0 21 0;
#X connect 59 0 27 0;
#X connect 60 0 59 1;
#X connect 63 0 25 0;
#X connect 64 0 63 1;
#X connect 65 0 79 0;
#X connect 66 0 76 2;
#X connect 67 0 80 0;
#X connect 68 0 31 2;
#X connect 73 0 64 0;
#X connect 74 0 73 0;
#X connect 75 0 185 0;
#X connect 76 0 26 0;
#X connect 76 1 26 1;
#X connect 77 0 12 0;
#X connect 78 0 19 0;
#X connect 79 0 66 0;
#X connect 80 0 68 0;
#X connect 81 0 21 0;
#X connect 84 0 86 0;
#X connect 84 0 105 0;
#X connect 84 0 177 0;
#X connect 85 0 84 0;
#X connect 87 0 146 0;
#X connect 88 0 89 0;
#X connect 89 0 90 0;
#X connect 90 0 132 0;
#X connect 91 0 93 0;
#X connect 91 0 178 0;
#X connect 92 0 91 0;
#X connect 94 0 147 0;
#X connect 95 0 96 0;
#X connect 96 0 128 0;
#X connect 97 0 84 0;
#X connect 97 0 91 0;
#X connect 98 0 99 0;
#X connect 99 0 164 2;
#X connect 100 0 140 0;
#X connect 100 0 145 0;
#X connect 101 0 104 0;
#X connect 101 0 141 0;
#X connect 102 0 165 2;
#X connect 103 0 102 0;
#X connect 104 0 165 0;
#X connect 104 1 165 1;
#X connect 105 0 106 0;
#X connect 106 0 123 0;
#X connect 107 0 106 1;
#X connect 111 0 112 0;
#X connect 112 0 113 0;
#X connect 112 1 123 0;
#X connect 113 0 123 0;
#X connect 114 0 85 0;
#X connect 115 0 92 0;
#X connect 118 0 123 1;
#X connect 119 0 123 2;
#X connect 120 0 122 0;
#X connect 120 0 126 0;
#X connect 120 0 150 0;
#X connect 121 0 118 0;
#X connect 122 0 119 0;
#X connect 123 0 127 0;
#X connect 124 0 123 3;
#X connect 126 0 124 0;
#X connect 127 0 97 0;
#X connect 128 0 101 0;
#X connect 129 0 128 1;
#X connect 132 0 100 0;
#X connect 133 0 132 1;
#X connect 134 0 148 0;
#X connect 135 0 145 2;
#X connect 136 0 149 0;
#X connect 137 0 104 2;
#X connect 142 0 133 0;
#X connect 143 0 142 0;
#X connect 144 0 251 0;
#X connect 145 0 164 0;
#X connect 145 1 164 1;
#X connect 146 0 88 0;
#X connect 147 0 95 0;
#X connect 148 0 135 0;
#X connect 149 0 137 0;
#X connect 150 0 123 1;
#X connect 151 0 97 0;
#X connect 153 0 184 0;
#X connect 154 0 162 0;
#X connect 156 0 157 0;
#X connect 156 0 181 0;
#X connect 156 0 180 0;
#X connect 157 0 182 0;
#X connect 157 0 183 0;
#X connect 158 0 179 0;
#X connect 159 0 153 0;
#X connect 160 0 159 0;
#X connect 163 0 44 0;
#X connect 163 0 113 0;
#X connect 163 0 216 0;
#X connect 166 0 54 1;
#X connect 167 0 54 1;
#X connect 168 0 123 1;
#X connect 169 0 11 0;
#X connect 170 0 18 0;
#X connect 171 0 38 0;
#X connect 172 0 0 0;
#X connect 173 0 4 0;
#X connect 176 0 3 0;
#X connect 177 0 87 0;
#X connect 178 0 94 0;
#X connect 179 0 161 0;
#X connect 180 0 152 0;
#X connect 181 0 155 0;
#X connect 184 0 154 0;
#X connect 185 0 60 0;
#X connect 187 0 248 0;
#X connect 188 0 195 0;
#X connect 189 0 190 0;
#X connect 189 0 246 0;
#X connect 190 0 247 0;
#X connect 191 0 249 0;
#X connect 192 0 187 0;
#X connect 193 0 192 0;
#X connect 198 0 200 0;
#X connect 198 0 209 0;
#X connect 198 0 245 0;
#X connect 199 0 198 0;
#X connect 201 0 240 0;
#X connect 202 0 203 0;
#X connect 203 0 204 0;
#X connect 204 0 231 0;
#X connect 205 0 198 0;
#X connect 206 0 207 0;
#X connect 207 0 250 2;
#X connect 208 0 236 0;
#X connect 208 0 239 0;
#X connect 209 0 210 0;
#X connect 210 0 225 0;
#X connect 211 0 210 1;
#X connect 214 0 215 0;
#X connect 215 0 216 0;
#X connect 215 1 225 0;
#X connect 216 0 225 0;
#X connect 217 0 199 0;
#X connect 220 0 225 1;
#X connect 221 0 225 2;
#X connect 222 0 224 0;
#X connect 222 0 228 0;
#X connect 222 0 242 0;
#X connect 223 0 220 0;
#X connect 224 0 221 0;
#X connect 225 0 229 0;
#X connect 226 0 225 3;
#X connect 228 0 226 0;
#X connect 229 0 205 0;
#X connect 231 0 208 0;
#X connect 232 0 231 1;
#X connect 233 0 241 0;
#X connect 234 0 239 2;
#X connect 237 0 232 0;
#X connect 238 0 237 0;
#X connect 239 0 250 0;
#X connect 239 1 250 1;
#X connect 240 0 202 0;
#X connect 241 0 234 0;
#X connect 242 0 225 1;
#X connect 243 0 205 0;
#X connect 244 0 225 1;
#X connect 245 0 201 0;
#X connect 246 0 186 0;
#X connect 248 0 188 0;
#X connect 249 0 194 0;
#X connect 251 0 129 0;
