#N canvas 371 49 1060 801 12;
#X obj 633 227 soundfiler;
#N canvas 121 146 635 421 (subpatch) 0;
#X array abeto1 610 float 0;
#X coords 0 1 609 -1 200 140 1 0 0;
#X restore 37 29 graph;
#X msg 633 260 \; abeto1 normalize;
#X obj 767 448 bng 19 250 50 0 empty empty empty 0 -10 0 12 #fcfcfc #000000 #000000;
#X obj 767 472 array size abeto1;
#X floatatom 767 496 5 0 0 0 - - - 0;
#X msg 633 195 read -ascii -resize abeto1.txt abeto1;
#X obj 794 285 soundfiler;
#N canvas 0 22 450 278 (subpatch) 0;
#X array abeto2 610 float 2;
#X coords 0 1 610 -1 200 140 1;
#X restore 244 30 graph;
#X msg 794 253 read -ascii -resize abeto2.txt abeto2;
#X msg 794 318 \; abeto2 normalize;
#X obj 649 111 loadbang;
#X obj 860 152 delay 10;
#X obj 33 443 tabread4 abeto1;
#X obj 38 390 hsl 162 19 0 610 0 0 empty empty empty -2 -10 0 12 #fcfcfc #000000 #000000 0 1;
#X msg 35 363 range 0 \$1;
#X floatatom 72 414 5 0 0 0 - - - 0;
#X floatatom 34 476 5 0 0 0 - - - 0;
#X floatatom 33 535 5 0 0 0 - - - 0;
#X obj 29 562 i;
#X floatatom 31 592 5 0 0 0 - - - 0;
#X obj 318 388 hsl 162 19 0 610 0 0 empty empty empty -2 -10 0 12 #fcfcfc #000000 #000000 0 1;
#X msg 315 361 range 0 \$1;
#X floatatom 352 412 5 0 0 0 - - - 0;
#X floatatom 314 474 5 0 0 0 - - - 0;
#X obj 318 536 i;
#X floatatom 318 565 5 0 0 0 - - - 0;
#X obj 157 362 line 0 1000;
#X obj 313 441 tabread4 abeto2;
#X obj 770 51 array min abeto2;
#X obj 768 23 bng 19 250 50 0 empty empty empty 0 -10 0 12 #fcfcfc #000000 #000000;
#X obj 179 700 loadbang;
#X msg 179 724 1;
#X obj 49 662 change;
#X obj 35 740 noteout 1;
#X obj 314 646 change;
#X obj 314 739 noteout 2;
#X msg 452 705 2;
#X obj 448 678 loadbang;
#X obj 34 702 makenote 64 1000;
#X obj 312 674 makenote 64 2000;
#X obj 194 435 sel 610;
#X obj 33 508 * 61;
#X obj 313 506 * 62;
#X obj 199 506 spigot;
#X obj 238 478 tgl 19 0 empty empty empty 0 -10 0 12 #fcfcfc #000000 #000000 0 1;
#X text 262 481 LOOP;
#X obj 916 480 delay 15;
#X obj 914 453 loadbang;
#X floatatom 769 78 5 0 0 0 - - - 0;
#X text 73 504 scale;
#X text 352 506 scale;
#X obj 767 519 s arraySize;
#X obj 56 177 r arraySize;
#X obj 55 206 t b f;
#X obj 31 240 bng 19 250 50 0 empty empty empty 0 -10 0 12 #fcfcfc #000000 #000000;
#X obj 36 335 r arraySize;
#X obj 316 335 r arraySize;
#X text 431 232 grain;
#X text 159 177 tiempo;
#X floatatom 194 252 5 0 0 0 - - - 0;
#X floatatom 396 249 5 0 0 0 - - - 0;
#X obj 167 201 loadbang;
#X msg 175 224 1000;
#X msg 398 221 30;
#X obj 92 276 pack f f f f, f 68;
#X floatatom 505 248 5 0 0 0 - - - 0;
#X text 540 231 init;
#X msg 507 220 0;
#X msg 159 321 \$4 \, \$1 \$2 \$3;
#X obj 322 610 + 0;
#X floatatom 392 582 5 0 0 0 - - - 0;
#X text 444 586 offset;
#X text 96 592 offset;
#X obj 29 624 + 0;
#X floatatom 152 593 5 0 0 0 - - - 0;
#X msg 250 230 10000;
#X obj 137 632 loadbang;
#X msg 145 655 1000;
#X floatatom 145 679 5 0 0 0 - - - 0;
#X obj 514 579 loadbang;
#X msg 522 602 1000;
#X floatatom 522 626 5 0 0 0 - - - 0;
#X text 185 679 sustain;
#X text 568 627 sustain;
#X connect 3 0 4 0;
#X connect 4 0 5 0;
#X connect 5 0 52 0;
#X connect 6 0 0 0;
#X connect 9 0 7 0;
#X connect 11 0 12 0;
#X connect 11 0 6 0;
#X connect 11 0 9 0;
#X connect 12 0 2 0;
#X connect 12 0 10 0;
#X connect 13 0 17 0;
#X connect 14 0 16 0;
#X connect 14 0 13 0;
#X connect 14 0 41 0;
#X connect 15 0 14 0;
#X connect 17 0 42 0;
#X connect 18 0 19 0;
#X connect 19 0 20 0;
#X connect 20 0 74 0;
#X connect 21 0 23 0;
#X connect 21 0 28 0;
#X connect 22 0 21 0;
#X connect 24 0 43 0;
#X connect 25 0 26 0;
#X connect 26 0 70 0;
#X connect 27 0 14 0;
#X connect 27 0 21 0;
#X connect 28 0 24 0;
#X connect 29 0 49 0;
#X connect 30 0 29 0;
#X connect 31 0 32 0;
#X connect 32 0 34 2;
#X connect 33 0 39 0;
#X connect 35 0 40 0;
#X connect 37 0 36 2;
#X connect 38 0 37 0;
#X connect 39 0 34 0;
#X connect 39 1 34 1;
#X connect 40 0 36 0;
#X connect 40 1 36 1;
#X connect 41 0 44 0;
#X connect 42 0 18 0;
#X connect 43 0 25 0;
#X connect 44 0 65 0;
#X connect 45 0 44 1;
#X connect 47 0 3 0;
#X connect 48 0 47 0;
#X connect 53 0 54 0;
#X connect 54 0 55 0;
#X connect 54 1 65 0;
#X connect 55 0 65 0;
#X connect 56 0 15 0;
#X connect 57 0 22 0;
#X connect 60 0 65 1;
#X connect 61 0 65 2;
#X connect 62 0 63 0;
#X connect 62 0 64 0;
#X connect 62 0 68 0;
#X connect 63 0 60 0;
#X connect 64 0 61 0;
#X connect 65 0 69 0;
#X connect 66 0 65 3;
#X connect 68 0 66 0;
#X connect 69 0 27 0;
#X connect 70 0 35 0;
#X connect 71 0 70 1;
#X connect 74 0 33 0;
#X connect 75 0 74 1;
#X connect 76 0 65 1;
#X connect 77 0 78 0;
#X connect 78 0 79 0;
#X connect 79 0 39 2;
#X connect 80 0 81 0;
#X connect 81 0 82 0;
#X connect 82 0 40 2;
