#N canvas 75 96 1355 858 12;
#X obj 741 383 soundfiler;
#N canvas 121 146 635 421 (subpatch) 0;
#X array ailanto1 3165 float 0;
#X coords 0 1 3164 -1 200 140 1 0 0;
#X restore 37 29 graph;
#X obj 988 592 bng 19 250 50 0 empty empty empty 0 -10 0 12 #fcfcfc #000000 #000000;
#X floatatom 882 688 5 0 0 0 - - - 0;
#X obj 820 422 soundfiler;
#N canvas 0 22 450 278 (subpatch) 0;
#X array ailanto2 3165 float 2;
#X coords 0 1 3165 -1 200 140 1 0 0;
#X restore 244 30 graph;
#X obj 765 236 loadbang;
#X obj 976 277 delay 10;
#X obj 38 390 hsl 162 19 0 3165 0 0 empty empty empty -2 -10 0 12 #fcfcfc #000000 #000000 0 1;
#X msg 35 363 range 0 \$1;
#X floatatom 72 414 5 0 0 0 - - - 0;
#X floatatom 34 476 5 0 0 0 - - - 0;
#X floatatom 33 535 5 0 0 0 - - - 0;
#X obj 29 562 i;
#X floatatom 31 592 5 0 0 0 - - - 0;
#X obj 318 388 hsl 162 19 0 3165 0 0 empty empty empty -2 -10 0 12 #fcfcfc #000000 #000000 0 1;
#X msg 315 361 range 0 \$1;
#X floatatom 352 412 5 0 0 0 - - - 0;
#X floatatom 314 474 5 0 0 0 - - - 0;
#X obj 318 536 i;
#X floatatom 318 565 5 0 0 0 - - - 0;
#X obj 157 362 line 0 1000;
#X obj 884 148 bng 19 250 50 0 empty empty empty 0 -10 0 12 #fcfcfc #000000 #000000;
#X obj 179 700 loadbang;
#X msg 179 724 1;
#X obj 43 654 change;
#X obj 35 760 noteout 1;
#X obj 314 646 change;
#X obj 338 757 noteout 2;
#X msg 452 705 2;
#X obj 448 678 loadbang;
#X obj 312 674 makenote 64 2000;
#X obj 194 435 sel 610;
#X obj 199 506 spigot;
#X obj 238 478 tgl 19 0 empty empty empty 0 -10 0 12 #fcfcfc #000000 #000000 0 1;
#X text 262 481 LOOP;
#X obj 1000 554 delay 15;
#X obj 998 527 loadbang;
#X floatatom 885 203 15 0 0 0 - - - 0;
#X text 73 504 scale;
#X text 352 506 scale;
#X obj 882 711 s arraySize;
#X obj 56 177 r arraySize;
#X obj 55 206 t b f;
#X obj 31 240 bng 19 250 50 0 empty empty empty 0 -10 0 12 #fcfcfc #000000 #000000;
#X obj 36 335 r arraySize;
#X obj 316 335 r arraySize;
#X text 431 232 grain;
#X text 159 177 tiempo;
#X floatatom 194 252 5 0 0 0 - - - 0;
#X floatatom 396 249 5 0 0 0 - - - 0;
#X obj 241 191 loadbang;
#X msg 175 224 1000;
#X msg 398 221 30;
#X obj 92 276 pack f f f f, f 68;
#X floatatom 505 248 5 0 0 0 - - - 0;
#X text 540 231 init;
#X msg 507 220 0;
#X msg 159 321 \$4 \, \$1 \$2 \$3;
#X obj 322 610 + 0;
#X floatatom 392 582 5 0 0 0 - - - 0;
#X text 444 586 offset;
#X text 96 592 offset;
#X obj 29 624 + 0;
#X floatatom 152 593 5 0 0 0 - - - 0;
#X obj 140 618 loadbang;
#X floatatom 145 679 5 0 0 0 - - - 0;
#X obj 514 579 loadbang;
#X floatatom 522 626 5 0 0 0 - - - 0;
#X text 185 679 sustain;
#X text 568 627 sustain;
#X floatatom 7 682 5 0 0 0 - - - 0;
#X floatatom 267 672 5 0 0 0 - - - 0;
#X obj 151 543 loadbang;
#X obj 399 529 loadbang;
#X obj 43 706 makenote 100 1000;
#X obj 33 508 * 64;
#X obj 313 506 * 64;
#X msg 145 654 30;
#X msg 522 602 30;
#X msg 400 553 0;
#X msg 270 328 stop;
#X text 651 199 init;
#X text 679 595 sustain;
#X obj 532 116 bng 19 250 50 0 empty empty empty 0 -10 0 12 #fcfcfc #000000 #000000;
#X msg 250 230 60000;
#X msg 323 225 600000;
#X obj 560 155 bng 19 250 50 0 empty empty empty 0 -10 0 12 #fcfcfc #000000 #000000;
#X text 514 155 stop;
#X text 463 115 play;
#X obj 886 176 array min ailanto1;
#X msg 749 320 read -ascii -resize ailanto-1.txt ailanto1;
#X msg 910 378 read -ascii -resize ailanto-2.txt ailanto2;
#X msg 693 494 \; ailanto1 normalize;
#X msg 910 443 \; ailanto2 normalize;
#X obj 759 639 array size ailanto1;
#X obj 30 454 tabread4 ailanto1;
#X obj 313 441 tabread4 ailanto2;
#X msg 152 567 0;
#X connect 2 0 95 0;
#X connect 3 0 41 0;
#X connect 6 0 7 0;
#X connect 6 0 91 0;
#X connect 6 0 92 0;
#X connect 7 0 93 0;
#X connect 7 0 94 0;
#X connect 8 0 10 0;
#X connect 8 0 32 0;
#X connect 8 0 96 0;
#X connect 9 0 8 0;
#X connect 11 0 76 0;
#X connect 12 0 13 0;
#X connect 13 0 14 0;
#X connect 14 0 63 0;
#X connect 15 0 17 0;
#X connect 15 0 97 0;
#X connect 16 0 15 0;
#X connect 18 0 77 0;
#X connect 19 0 20 0;
#X connect 20 0 59 0;
#X connect 21 0 8 0;
#X connect 21 0 15 0;
#X connect 22 0 90 0;
#X connect 23 0 24 0;
#X connect 24 0 26 2;
#X connect 25 0 71 0;
#X connect 25 0 75 0;
#X connect 27 0 31 0;
#X connect 27 0 72 0;
#X connect 29 0 28 2;
#X connect 30 0 29 0;
#X connect 31 0 28 0;
#X connect 31 1 28 1;
#X connect 32 0 33 0;
#X connect 33 0 54 0;
#X connect 34 0 33 1;
#X connect 36 0 2 0;
#X connect 37 0 36 0;
#X connect 42 0 43 0;
#X connect 43 0 44 0;
#X connect 43 1 54 0;
#X connect 44 0 54 0;
#X connect 45 0 9 0;
#X connect 46 0 16 0;
#X connect 49 0 54 1;
#X connect 50 0 54 2;
#X connect 51 0 53 0;
#X connect 51 0 57 0;
#X connect 51 0 85 0;
#X connect 52 0 49 0;
#X connect 53 0 50 0;
#X connect 54 0 58 0;
#X connect 55 0 54 3;
#X connect 57 0 55 0;
#X connect 58 0 21 0;
#X connect 59 0 27 0;
#X connect 60 0 59 1;
#X connect 63 0 25 0;
#X connect 64 0 63 1;
#X connect 65 0 78 0;
#X connect 66 0 75 2;
#X connect 67 0 79 0;
#X connect 68 0 31 2;
#X connect 73 0 98 0;
#X connect 74 0 80 0;
#X connect 75 0 26 0;
#X connect 75 1 26 1;
#X connect 76 0 12 0;
#X connect 77 0 19 0;
#X connect 78 0 66 0;
#X connect 79 0 68 0;
#X connect 80 0 60 0;
#X connect 81 0 21 0;
#X connect 84 0 44 0;
#X connect 85 0 54 1;
#X connect 86 0 54 1;
#X connect 87 0 81 0;
#X connect 90 0 38 0;
#X connect 91 0 0 0;
#X connect 92 0 4 0;
#X connect 95 0 3 0;
#X connect 96 0 11 0;
#X connect 97 0 18 0;
#X connect 98 0 64 0;
