#N canvas 186 38 1183 840 12;
#X obj 625 258 soundfiler;
#N canvas 121 146 635 421 (subpatch) 0;
#X array platanoOriental_tierra1 397 float 0;
#X coords 0 1 396 -1 200 140 1 0 0;
#X restore 37 29 graph;
#X obj 872 467 bng 19 250 50 0 empty empty empty 0 -10 0 12 #fcfcfc #000000 #000000;
#X floatatom 766 563 5 0 0 0 - - - 0;
#X obj 704 297 soundfiler;
#N canvas 0 22 450 278 (subpatch) 0;
#X array platanoOriental_tierra2 397 float 2;
#X coords 0 1 397 -1 200 140 1 0 0;
#X restore 244 30 graph;
#X obj 649 111 loadbang;
#X obj 860 152 delay 10;
#X obj 38 390 hsl 162 19 0 397 0 0 empty empty empty -2 -10 0 12 #fcfcfc #000000 #000000 0 1;
#X msg 35 363 range 0 \$1;
#X floatatom 72 414 5 0 0 0 - - - 0;
#X floatatom 34 476 5 0 0 0 - - - 0;
#X floatatom 33 535 5 0 0 0 - - - 0;
#X obj 29 562 i;
#X floatatom 31 592 5 0 0 0 - - - 0;
#X obj 318 388 hsl 162 19 0 397 0 0 empty empty empty -2 -10 0 12 #fcfcfc #000000 #000000 0 1;
#X msg 315 361 range 0 \$1;
#X floatatom 352 412 5 0 0 0 - - - 0;
#X floatatom 314 474 5 0 0 0 - - - 0;
#X obj 318 536 i;
#X floatatom 318 565 5 0 0 0 - - - 0;
#X obj 157 362 line 0 1000;
#X obj 768 23 bng 19 250 50 0 empty empty empty 0 -10 0 12 #fcfcfc #000000 #000000;
#X obj 179 700 loadbang;
#X msg 179 724 1;
#X obj 43 654 change;
#X obj 35 760 noteout 1;
#X obj 314 646 change;
#X obj 338 757 noteout 2;
#X msg 452 705 2;
#X obj 448 678 loadbang;
#X obj 312 674 makenote 64 2000;
#X obj 194 435 sel 610;
#X obj 199 506 spigot;
#X obj 238 478 tgl 19 0 empty empty empty 0 -10 0 12 #fcfcfc #000000 #000000 0 1;
#X text 262 481 LOOP;
#X obj 884 429 delay 15;
#X obj 882 402 loadbang;
#X floatatom 769 78 5 0 0 0 - - - 0;
#X text 73 504 scale;
#X text 352 506 scale;
#X obj 766 586 s arraySize;
#X obj 56 177 r arraySize;
#X obj 55 206 t b f;
#X obj 31 240 bng 19 250 50 0 empty empty empty 0 -10 0 12 #fcfcfc #000000 #000000;
#X obj 36 335 r arraySize;
#X obj 316 335 r arraySize;
#X text 431 232 grain;
#X text 159 177 tiempo;
#X floatatom 194 252 5 0 0 0 - - - 0;
#X floatatom 396 249 5 0 0 0 - - - 0;
#X obj 241 191 loadbang;
#X msg 175 224 1000;
#X msg 398 221 30;
#X obj 92 276 pack f f f f, f 68;
#X floatatom 505 248 5 0 0 0 - - - 0;
#X text 540 231 init;
#X msg 507 220 0;
#X msg 159 321 \$4 \, \$1 \$2 \$3;
#X obj 322 610 + 0;
#X floatatom 392 582 5 0 0 0 - - - 0;
#X text 444 586 offset;
#X text 96 592 offset;
#X obj 29 624 + 0;
#X floatatom 152 593 5 0 0 0 - - - 0;
#X obj 140 618 loadbang;
#X floatatom 145 679 5 0 0 0 - - - 0;
#X obj 514 579 loadbang;
#X floatatom 522 626 5 0 0 0 - - - 0;
#X text 185 679 sustain;
#X text 568 627 sustain;
#X msg 633 195 read -ascii -resize platanoOriental_tierra1.txt platanoOriental_tierra1;
#X msg 577 370 \; platanoOriental_tierra1 normalize;
#X msg 794 253 read -ascii -resize platanoOriental_tierra2.txt platanoOriental_tierra2;
#X msg 794 318 \; platanoOriental_tierra2 normalize;
#X obj 643 514 array size platanoOriental_tierra1;
#X obj 770 51 array min platanoOriental_tierra2;
#X obj 30 454 tabread4 platanoOriental_tierra1;
#X floatatom 7 682 5 0 0 0 - - - 0;
#X floatatom 267 672 5 0 0 0 - - - 0;
#X msg 152 567 72;
#X obj 151 543 loadbang;
#X obj 399 529 loadbang;
#X obj 43 706 makenote 100 1000;
#X obj 33 508 * 64;
#X obj 313 506 * 64;
#X msg 145 654 30;
#X msg 522 602 30;
#X msg 250 230 60000;
#X obj 313 441 tabread4 platanoOriental_tierra2;
#X msg 400 553 0;
#X msg 270 328 stop;
#X connect 2 0 75 0;
#X connect 3 0 41 0;
#X connect 6 0 7 0;
#X connect 6 0 71 0;
#X connect 6 0 73 0;
#X connect 7 0 72 0;
#X connect 7 0 74 0;
#X connect 8 0 10 0;
#X connect 8 0 32 0;
#X connect 8 0 77 0;
#X connect 9 0 8 0;
#X connect 11 0 84 0;
#X connect 12 0 13 0;
#X connect 13 0 14 0;
#X connect 14 0 63 0;
#X connect 15 0 17 0;
#X connect 15 0 89 0;
#X connect 16 0 15 0;
#X connect 18 0 85 0;
#X connect 19 0 20 0;
#X connect 20 0 59 0;
#X connect 21 0 8 0;
#X connect 21 0 15 0;
#X connect 22 0 76 0;
#X connect 23 0 24 0;
#X connect 24 0 26 2;
#X connect 25 0 78 0;
#X connect 25 0 83 0;
#X connect 27 0 31 0;
#X connect 27 0 79 0;
#X connect 29 0 28 2;
#X connect 30 0 29 0;
#X connect 31 0 28 0;
#X connect 31 1 28 1;
#X connect 32 0 33 0;
#X connect 33 0 54 0;
#X connect 34 0 33 1;
#X connect 36 0 2 0;
#X connect 37 0 36 0;
#X connect 42 0 43 0;
#X connect 43 0 44 0;
#X connect 43 1 54 0;
#X connect 44 0 54 0;
#X connect 45 0 9 0;
#X connect 46 0 16 0;
#X connect 49 0 54 1;
#X connect 50 0 54 2;
#X connect 51 0 53 0;
#X connect 51 0 57 0;
#X connect 51 0 88 0;
#X connect 52 0 49 0;
#X connect 53 0 50 0;
#X connect 54 0 58 0;
#X connect 55 0 54 3;
#X connect 57 0 55 0;
#X connect 58 0 21 0;
#X connect 59 0 27 0;
#X connect 60 0 59 1;
#X connect 63 0 25 0;
#X connect 64 0 63 1;
#X connect 65 0 86 0;
#X connect 66 0 83 2;
#X connect 67 0 87 0;
#X connect 68 0 31 2;
#X connect 71 0 0 0;
#X connect 73 0 4 0;
#X connect 75 0 3 0;
#X connect 76 0 38 0;
#X connect 77 0 11 0;
#X connect 80 0 64 0;
#X connect 81 0 80 0;
#X connect 82 0 90 0;
#X connect 83 0 26 0;
#X connect 83 1 26 1;
#X connect 84 0 12 0;
#X connect 85 0 19 0;
#X connect 86 0 66 0;
#X connect 87 0 68 0;
#X connect 88 0 54 1;
#X connect 89 0 18 0;
#X connect 90 0 60 0;
#X connect 91 0 21 0;
